<?xml version="1.0" standalone="no"?>
<!DOCTYPE svg PUBLIC "-//W3C//DTD SVG 20010904//EN"
 "http://www.w3.org/TR/2001/REC-SVG-20010904/DTD/svg10.dtd">
<svg version="1.0" xmlns="http://www.w3.org/2000/svg"
 width="32.000000pt" height="32.000000pt" viewBox="0 0 32.000000 32.000000"
 preserveAspectRatio="xMidYMid meet">

<g transform="translate(0.000000,32.000000) scale(0.100000,-0.100000)"
fill="#000000" stroke="none">
<path d="M0 160 l0 -160 160 0 160 0 0 160 0 160 -160 0 -160 0 0 -160z m140
43 c0 -34 1 -35 18 -20 10 10 26 17 36 17 16 0 16 -3 -3 -29 -20 -28 -20 -28
-1 -46 11 -10 20 -22 20 -27 0 -16 -32 -7 -51 14 l-18 23 -1 -22 c0 -14 -6
-23 -15 -23 -12 0 -15 15 -15 75 0 60 3 75 15 75 11 0 15 -11 15 -37z"/>
</g>
</svg>
