<?xml version="1.0" standalone="no"?>
<!DOCTYPE svg PUBLIC "-//W3C//DTD SVG 1.1//EN" "http://www.w3.org/Graphics/SVG/1.1/DTD/svg11.dtd" >
<svg xmlns="http://www.w3.org/2000/svg">
<metadata>Generated by IcoMoon</metadata>
<defs>
<font id="kallesicon" horiz-adv-x="1024">
<font-face units-per-em="1024" ascent="960" descent="-64" />
<missing-glyph horiz-adv-x="1024" />
<glyph unicode="&#x20;" horiz-adv-x="512" d="" />
<glyph unicode="&#xe900;" glyph-name="mail-fill" d="M864 231.776c0-39.68-31.616-71.776-70.080-71.776h-563.84c-38.72 0-70.080 32.192-70.080 71.776v290.784c0 17.792 12.48 24.736 27.36 15.872l280.96-167.616c25.024-14.944 62.4-14.944 87.36 0l280.96 167.616c15.104 8.96 27.36 2.016 27.36-15.84v-290.784zM864 664.224c0 39.584-31.36 71.776-70.080 71.776h-563.84c-38.464 0-70.080-32.128-70.080-71.776v-14.88c0-17.728 12.32-39.424 27.424-48.448l307.52-183.456c8.544-5.12 25.6-5.12 34.144 0l307.52 183.456c15.136 9.056 27.392 30.72 27.392 48.448v14.88z" />
<glyph unicode="&#xe901;" glyph-name="twitter" d="M896 684.8c-28.8-12.8-57.6-22.4-89.6-25.6 32 19.2 57.6 51.2 70.4 86.4-28.8-19.2-64-32-99.2-38.4-28.8 32-70.4 51.2-115.2 51.2-86.4 0-156.8-70.4-156.8-156.8 0-12.8 0-25.6 3.2-35.2-131.2 6.4-246.4 70.4-323.2 163.2-19.2-22.4-25.6-48-25.6-76.8 0-54.4 28.8-102.4 70.4-131.2-25.6 0-51.2 6.4-70.4 19.2 0 0 0 0 0-3.2 0-76.8 54.4-140.8 124.8-153.6-12.8-3.2-25.6-6.4-41.6-6.4-9.6 0-19.2 0-28.8 3.2 19.2-64 76.8-108.8 147.2-108.8-54.4-41.6-121.6-67.2-195.2-67.2-12.8 0-25.6 0-38.4 3.2 70.4-44.8 153.6-70.4 240-70.4 291.2 0 448 240 448 448 0 6.4 0 12.8 0 19.2 32 22.4 57.6 51.2 80 80z" />
<glyph unicode="&#xe902;" glyph-name="bars-solid" d="M128 736v-64h768v64zM128 480v-64h768v64zM128 224v-64h768v64z" />
<glyph unicode="&#xe903;" glyph-name="telegram1" d="M835.2 832c-9.6 0-22.4-3.2-28.8-6.4v0c-9.6-3.2-51.2-22.4-118.4-48-67.2-28.8-150.4-64-236.8-99.2-169.6-70.4-336-140.8-336-140.8h3.2c0 0-12.8-3.2-22.4-12.8-6.4-3.2-12.8-9.6-19.2-19.2-9.6-9.6-12.8-22.4-12.8-35.2 3.2-22.4 19.2-38.4 28.8-44.8s22.4-12.8 22.4-12.8v0l156.8-51.2c6.4-22.4 48-156.8 57.6-185.6 6.4-19.2 12.8-28.8 19.2-38.4 3.2-3.2 6.4-9.6 12.8-12.8 3.2 0 3.2-3.2 6.4-3.2 0 0 0 0 3.2 0h-3.2c0 0 0 0 0 0s3.2 0 3.2 0c22.4-9.6 44.8 6.4 44.8 6.4v0l92.8 83.2 153.6-118.4h3.2c32-12.8 64-6.4 83.2 6.4 16 12.8 25.6 32 25.6 32v3.2l118.4 611.2c3.2 16 3.2 28.8 0 41.6s-12.8 25.6-25.6 32c-9.6 12.8-22.4 12.8-32 12.8zM832 768c0-3.2 0-3.2 0-6.4v0l-118.4-604.8c0 0 0-3.2-3.2-3.2-3.2-3.2-3.2-3.2-16 0l-188.8 144-115.2-105.6 25.6 153.6c0 0 297.6 275.2 310.4 288s9.6 12.8 9.6 12.8c0 16-19.2 3.2-19.2 3.2l-390.4-240-185.6 64c0 0 0 0 0 0s0 0 0 0v0 0c0 0 166.4 70.4 336 140.8 86.4 35.2 169.6 70.4 236.8 99.2s115.2 48 118.4 48c-3.2 6.4-3.2 6.4 0 6.4z" />
<glyph unicode="&#xe904;" glyph-name="heart" d="M304 800c-132.375 0-240-108.875-240-240 0-45.75 20.75-85.375 40-114s39-47 39-47l369-370 23 23 346 347c0 0 79 69.625 79 161 0 131.125-107.625 240-240 240-109.875 0-180.625-66.125-208-94-27.375 27.875-98.125 94-208 94zM304 736c95.625 0 184-93 184-93l24-27 24 27c0 0 88.375 93 184 93 97.375 0 176-79.875 176-176 0-49.375-60-116-60-116l-324-324-324 324c0 0-15.5 14.875-31 38s-29 53.25-29 78c0 96.125 78.625 176 176 176z" />
<glyph unicode="&#xe905;" glyph-name="angle-down-solid" d="M135 615l-46-46 400-400 23-22 23 22 400 400-46 46-377-377z" />
<glyph unicode="&#xe906;" glyph-name="angle-left-solid" d="M609 823l-352-352-22-23 22-23 352-352 46 46-329 329 329 329z" />
<glyph unicode="&#xe907;" glyph-name="angle-right-solid" d="M415 823l-46-46 329-329-329-329 46-46 352 352 22 23-22 23z" />
<glyph unicode="&#xe908;" glyph-name="angle-up-solid" d="M512 749l-23-22-400-400 46-46 377 377 377-377 46 46-400 400z" />
<glyph unicode="&#xe909;" glyph-name="arrow-right-solid" d="M599 743l-46-46 217-217h-642v-64h642l-217-217 46-46 272 272 22 23-22 23z" />
<glyph unicode="&#xe90a;" glyph-name="clipboard" d="M512 864c-40.25 0-68.875-28.5-83-64h-237v-736h640v736h-237c-14.125 35.5-42.75 64-83 64zM512 800c17.75 0 32-14.25 32-32v-32h96v-64h-256v64h96v32c0 17.75 14.25 32 32 32zM256 736h64v-128h384v128h64v-608h-512z" />
<glyph unicode="&#xe90b;" glyph-name="facebook-f" d="M616.125 896c-126.144 0-200.125-66.63-200.125-218.438v-133.562h-160v-160h160v-384h160v384h128l32 160h-160v106.5c0 57.184 18.649 85.5 72.313 85.5h87.687v153.438c-15.168 2.048-59.363 6.562-119.875 6.562z" />
<glyph unicode="&#xe90c;" glyph-name="gift-solid" d="M384 800c-52.625 0-96-43.375-96-96 0-11.25 2.375-21.875 6-32h-166v-192h32v-416h704v416h32v192h-166c3.625 10.125 6 20.75 6 32 0 52.625-43.375 96-96 96-56 0-94-42.5-119-78-3.375-4.75-6-9.375-9-14-3 4.625-5.625 9.25-9 14-25 35.5-63 78-119 78zM384 736c20 0 46-21.5 66-50 4.875-7 4.125-7.375 8-14h-74c-18.125 0-32 13.875-32 32s13.875 32 32 32zM640 736c18.125 0 32-13.875 32-32s-13.875-32-32-32h-74c3.875 6.625 3.125 7 8 14 20 28.5 46 50 66 50zM192 608h640v-64h-288v32h-64v-32h-288zM224 480h576v-352h-256v320h-64v-320h-256z" />
<glyph unicode="&#xe90d;" glyph-name="google-plus" d="M480 896c-229 0-416-187-416-416s187-416 416-416c216.25 0 395 166.5 414 378.25l6.25 69.75h-388.25v-128h235c-40-111-141.75-192-267-192-159.75 0-288 128.25-288 288s128.25 288 288 288c76.25 0 145-29.5 196.5-77.5l87.5 93.5c-74.5 69.5-174.5 112-284 112z" />
<glyph unicode="&#xe90e;" glyph-name="compass" d="M512 0c-247.467 0-448 200.533-448 448s200.533 448 448 448c247.467 0 448-200.533 448-448s-200.533-448-448-448zM512 853.333c-221.867 0-405.333-183.467-405.333-405.333s183.467-405.333 405.333-405.333 405.333 183.467 405.333 405.333-183.467 405.333-405.333 405.333zM332.8 247.467c-4.267 0-12.8 4.267-17.067 4.267-4.267 4.267-8.533 12.8-4.267 21.333l89.6 273.067c0 4.267 8.533 12.8 12.8 12.8l273.067 89.6c8.533 4.267 17.067 0 21.333-4.267s8.533-12.8 4.267-21.333l-89.6-273.067c0-4.267-8.533-12.8-12.8-12.8l-273.067-89.6c0 0-4.267 0-4.267 0zM439.467 520.533l-72.533-221.867 221.867 72.533 72.533 221.867-221.867-72.533z" />
<glyph unicode="&#xe90f;" glyph-name="instagram" d="M367 800c-113.625 0-207-93.25-207-207v-290c0-113.625 93.25-207 207-207h290c113.625 0 207 93.25 207 207v290c0 113.625-93.25 207-207 207zM367 736h290c79.125 0 143-63.875 143-143v-290c0-79.125-63.875-143-143-143h-290c-79.125 0-143 63.875-143 143v290c0 79.125 63.875 143 143 143zM701 666c-16.125 0-29-12.875-29-29s12.875-29 29-29c16.125 0 29 12.875 29 29s-12.875 29-29 29zM512 640c-105.625 0-192-86.375-192-192s86.375-192 192-192c105.625 0 192 86.375 192 192s-86.375 192-192 192zM512 576c71.125 0 128-56.875 128-128s-56.875-128-128-128c-71.125 0-128 56.875-128 128s56.875 128 128 128z" />
<glyph unicode="&#xe910;" glyph-name="sync-solid" d="M512 832c-163.625 0-300.25-101.125-356-244l59-24c46.625 119.5 159.75 204 297 204 103.75 0 196.25-50.875 254-128h-126v-64h224v224h-64v-99c-70.125 80.375-173.75 131-288 131zM809 332c-46.625-119.5-159.75-204-297-204-104.875 0-197 51.625-255 128h127v64h-224v-224h64v99c70-79.375 172.625-131 288-131 163.625 0 300.25 101.125 356 244z" />
<glyph unicode="&#xe911;" glyph-name="t4-arrow-down" d="M512 106.667c-25.6 0-42.667 17.067-42.667 42.667v597.333c0 25.6 17.067 42.667 42.667 42.667s42.667-17.067 42.667-42.667v-597.333c0-25.6-17.067-42.667-42.667-42.667zM512 106.667c-12.8 0-21.333 4.267-29.867 12.8l-298.667 298.667c-17.067 17.067-17.067 42.667 0 59.733s42.667 17.067 59.733 0l268.8-268.8 268.8 268.8c17.067 17.067 42.667 17.067 59.733 0s17.067-42.667 0-59.733l-298.667-298.667c-8.533-8.533-17.067-12.8-29.867-12.8z" />
<glyph unicode="&#xe912;" glyph-name="t4-arrow-left" d="M810.667 405.333h-597.333c-25.6 0-42.667 17.067-42.667 42.667s17.067 42.667 42.667 42.667h597.333c25.6 0 42.667-17.067 42.667-42.667s-17.067-42.667-42.667-42.667zM512 106.667c-12.8 0-21.333 4.267-29.867 12.8l-298.667 298.667c-17.067 17.067-17.067 42.667 0 59.733l298.667 298.667c17.067 17.067 42.667 17.067 59.733 0s17.067-42.667 0-59.733l-268.8-268.8 268.8-268.8c17.067-17.067 17.067-42.667 0-59.733-8.533-8.533-17.067-12.8-29.867-12.8z" />
<glyph unicode="&#xe913;" glyph-name="t4-arrow-up" d="M512 106.667c-25.6 0-42.667 17.067-42.667 42.667v597.333c0 25.6 17.067 42.667 42.667 42.667s42.667-17.067 42.667-42.667v-597.333c0-25.6-17.067-42.667-42.667-42.667zM810.667 405.333c-12.8 0-21.333 4.267-29.867 12.8l-268.8 268.8-268.8-268.8c-17.067-17.067-42.667-17.067-59.733 0s-17.067 42.667 0 59.733l298.667 298.667c17.067 17.067 42.667 17.067 59.733 0l298.667-298.667c17.067-17.067 17.067-42.667 0-59.733-8.533-8.533-17.067-12.8-29.867-12.8z" />
<glyph unicode="&#xe914;" glyph-name="t4-minus" d="M810.667 405.333h-597.333c-25.6 0-42.667 17.067-42.667 42.667s17.067 42.667 42.667 42.667h597.333c25.6 0 42.667-17.067 42.667-42.667s-17.067-42.667-42.667-42.667z" />
<glyph unicode="&#xe915;" glyph-name="t4-play" d="M213.333 21.333c-8.533 0-12.8 0-21.333 4.267-12.8 8.533-21.333 21.333-21.333 38.4v768c0 17.067 8.533 29.867 21.333 38.4s29.867 8.533 42.667 0l597.333-384c12.8-8.533 21.333-21.333 21.333-34.133s-8.533-29.867-21.333-34.133l-597.333-384c-4.267-8.533-12.8-12.8-21.333-12.8zM256 755.2v-610.133l477.867 302.933-477.867 307.2z" />
<glyph unicode="&#xe916;" glyph-name="pinterest-p" d="M515 832c-162.464 0-323-108.266-323-283.562 0-111.456 62.672-174.813 100.688-174.813 15.68 0 24.75 43.71 24.75 56.062 0 14.72-37.562 46.095-37.562 107.375 0 127.296 96.904 217.5 222.312 217.5 107.84 0 187.625-61.236 187.625-173.812 0-84.064-33.752-241.75-143-241.75-39.424 0-73.125 28.481-73.125 69.313 0 59.84 38.313 117.802 38.313 179.562 0 104.832-145.187 85.813-145.187-40.875 0-26.592 3.315-56.026 15.187-80.25-21.824-94.048-62-243.947-62-340.875 0-29.92 4.277-59.361 7.125-89.313 5.376-6.016 2.714-5.383 10.938-2.375 79.808 109.248 72.404 140.399 108.5 283.375 19.488-37.056 69.846-57 109.75-57 168.16 0 243.687 163.881 243.687 311.625 0 157.216-135.848 259.813-285 259.813z" />
<glyph unicode="&#xe917;" glyph-name="tag-solid" d="M512 800l-10-9-387-391 22-23 304-304 23-22 22 22 369 365 9 10v352zM539 736h261v-261l-336-334-259 259zM704 672c-17.625 0-32-14.375-32-32s14.375-32 32-32c17.625 0 32 14.375 32 32s-14.375 32-32 32z" />
<glyph unicode="&#xe918;" glyph-name="truck-solid" d="M32 832v-672h101c14.25-55 63.75-96 123-96s108.75 41 123 96h266c14.25-55 63.75-96 123-96s108.75 41 123 96h101v333l-9 10-192 192-10 9h-173v128zM96 768h448v-544h-165c-14.25 55-63.75 96-123 96s-108.75-41-123-96h-37zM608 640h146l174-174v-242h-37c-14.25 55-63.75 96-123 96s-108.75-41-123-96h-37zM256 256c35.75 0 64-28.25 64-64s-28.25-64-64-64c-35.75 0-64 28.25-64 64s28.25 64 64 64zM768 256c35.75 0 64-28.25 64-64s-28.25-64-64-64c-35.75 0-64 28.25-64 64s28.25 64 64 64z" />
<glyph unicode="&#xe919;" glyph-name="t4-user" d="M853.333 42.667c-12.8 0-21.333 8.533-21.333 21.333v85.333c0 81.067-68.267 149.333-149.333 149.333h-341.333c-81.067 0-149.333-68.267-149.333-149.333v-85.333c0-12.8-8.533-21.333-21.333-21.333s-21.333 8.533-21.333 21.333v85.333c0 106.667 85.333 192 192 192h341.333c106.667 0 192-85.333 192-192v-85.333c0-12.8-8.533-21.333-21.333-21.333zM512 469.333c-106.667 0-192 85.333-192 192s85.333 192 192 192 192-85.333 192-192-85.333-192-192-192zM512 810.667c-81.067 0-149.333-68.267-149.333-149.333s68.267-149.333 149.333-149.333 149.333 68.267 149.333 149.333-68.267 149.333-149.333 149.333z" />
<glyph unicode="&#xe91a;" glyph-name="t4-clipboard" d="M768 0h-512c-59.733 0-106.667 46.933-106.667 106.667v597.333c0 59.733 46.933 106.667 106.667 106.667h85.333c12.8 0 21.333-8.533 21.333-21.333s-8.533-21.333-21.333-21.333h-85.333c-34.133 0-64-29.867-64-64v-597.333c0-34.133 29.867-64 64-64h512c34.133 0 64 29.867 64 64v597.333c0 34.133-29.867 64-64 64h-85.333c-12.8 0-21.333 8.533-21.333 21.333s8.533 21.333 21.333 21.333h85.333c59.733 0 106.667-46.933 106.667-106.667v-597.333c0-59.733-46.933-106.667-106.667-106.667zM640 682.667h-256c-34.133 0-64 29.867-64 64v85.333c0 34.133 29.867 64 64 64h256c34.133 0 64-29.867 64-64v-85.333c0-34.133-29.867-64-64-64zM384 853.333c-12.8 0-21.333-8.533-21.333-21.333v-85.333c0-12.8 8.533-21.333 21.333-21.333h256c12.8 0 21.333 8.533 21.333 21.333v85.333c0 12.8-8.533 21.333-21.333 21.333h-256z" />
<glyph unicode="&#xe91b;" glyph-name="t4-eye" d="M512 85.333c-307.2 0-482.133 337.067-486.4 354.133-4.267 4.267-4.267 12.8 0 17.067 4.267 17.067 179.2 354.133 486.4 354.133s482.133-337.067 486.4-354.133c4.267-4.267 4.267-12.8 0-17.067-4.267-17.067-179.2-354.133-486.4-354.133zM68.267 448c29.867-55.467 187.733-320 443.733-320s413.867 264.533 443.733 320c-29.867 55.467-187.733 320-443.733 320s-413.867-264.533-443.733-320zM512 298.667c-81.067 0-149.333 68.267-149.333 149.333s68.267 149.333 149.333 149.333 149.333-68.267 149.333-149.333-68.267-149.333-149.333-149.333zM512 554.667c-59.733 0-106.667-46.933-106.667-106.667s46.933-106.667 106.667-106.667c59.733 0 106.667 46.933 106.667 106.667s-46.933 106.667-106.667 106.667z" />
<glyph unicode="&#xe91c;" glyph-name="t4-facebook" d="M597.333 0h-170.667c-12.8 0-21.333 8.533-21.333 21.333v320h-106.667c-12.8 0-21.333 8.533-21.333 21.333v170.667c0 12.8 8.533 21.333 21.333 21.333h106.667v106.667c0 128 106.667 234.667 234.667 234.667h128c12.8 0 21.333-8.533 21.333-21.333v-170.667c0-12.8-8.533-21.333-21.333-21.333h-128c-12.8 0-21.333-8.533-21.333-21.333v-106.667h149.333c8.533 0 12.8-4.267 17.067-8.533s4.267-12.8 4.267-17.067l-42.667-170.667c-4.267-8.533-12.8-17.067-21.333-17.067h-106.667v-320c0-12.8-8.533-21.333-21.333-21.333zM448 42.667h128v320c0 12.8 8.533 21.333 21.333 21.333h110.933l34.133 128h-145.067c-12.8 0-21.333 8.533-21.333 21.333v128c0 34.133 29.867 64 64 64h106.667v128h-106.667c-106.667 0-192-85.333-192-192v-128c0-12.8-8.533-21.333-21.333-21.333h-106.667v-128h106.667c12.8 0 21.333-8.533 21.333-21.333v-320z" />
<glyph unicode="&#xe91d;" glyph-name="t4-gift" d="M853.333 0h-682.667c-12.8 0-21.333 8.533-21.333 21.333v426.667c0 12.8 8.533 21.333 21.333 21.333s21.333-8.533 21.333-21.333v-405.333h640v405.333c0 12.8 8.533 21.333 21.333 21.333s21.333-8.533 21.333-21.333v-426.667c0-12.8-8.533-21.333-21.333-21.333zM938.667 426.667h-853.333c-12.8 0-21.333 8.533-21.333 21.333v213.333c0 12.8 8.533 21.333 21.333 21.333h853.333c12.8 0 21.333-8.533 21.333-21.333v-213.333c0-12.8-8.533-21.333-21.333-21.333zM106.667 469.333h810.667v170.667h-810.667v-170.667zM512 0c-12.8 0-21.333 8.533-21.333 21.333v640c0 12.8 8.533 21.333 21.333 21.333s21.333-8.533 21.333-21.333v-640c0-12.8-8.533-21.333-21.333-21.333zM512 640h-192c-72.533 0-128 55.467-128 128s55.467 128 128 128c166.4 0 209.067-221.867 213.333-230.4 0-4.267 0-12.8-4.267-17.067s-12.8-8.533-17.067-8.533zM320 853.333c-46.933 0-85.333-38.4-85.333-85.333s38.4-85.333 85.333-85.333h166.4c-17.067 51.2-64 170.667-166.4 170.667zM704 640h-192c-4.267 0-12.8 4.267-17.067 8.533s-4.267 12.8-4.267 17.067c0 8.533 46.933 230.4 213.333 230.4 72.533 0 128-55.467 128-128s-55.467-128-128-128zM537.6 682.667h166.4c46.933 0 85.333 38.4 85.333 85.333s-38.4 85.333-85.333 85.333c-102.4 0-149.333-119.467-166.4-170.667z" />
<glyph unicode="&#xe91e;" glyph-name="t4-grid" d="M426.667 512h-298.667c-12.8 0-21.333 8.533-21.333 21.333v298.667c0 12.8 8.533 21.333 21.333 21.333h298.667c12.8 0 21.333-8.533 21.333-21.333v-298.667c0-12.8-8.533-21.333-21.333-21.333zM149.333 554.667h256v256h-256v-256zM896 512h-298.667c-12.8 0-21.333 8.533-21.333 21.333v298.667c0 12.8 8.533 21.333 21.333 21.333h298.667c12.8 0 21.333-8.533 21.333-21.333v-298.667c0-12.8-8.533-21.333-21.333-21.333zM618.667 554.667h256v256h-256v-256zM896 42.667h-298.667c-12.8 0-21.333 8.533-21.333 21.333v298.667c0 12.8 8.533 21.333 21.333 21.333h298.667c12.8 0 21.333-8.533 21.333-21.333v-298.667c0-12.8-8.533-21.333-21.333-21.333zM618.667 85.333h256v256h-256v-256zM426.667 42.667h-298.667c-12.8 0-21.333 8.533-21.333 21.333v298.667c0 12.8 8.533 21.333 21.333 21.333h298.667c12.8 0 21.333-8.533 21.333-21.333v-298.667c0-12.8-8.533-21.333-21.333-21.333zM149.333 85.333h256v256h-256v-256z" />
<glyph unicode="&#xe91f;" glyph-name="t4-heart" d="M512 34.133c-4.267 0-12.8 4.267-17.067 4.267l-375.467 375.467c-98.133 98.133-98.133 260.267 0 362.667 98.133 98.133 260.267 98.133 362.667 0l29.867-29.867 29.867 29.867c0 0 0 0 0 0 98.133 98.133 260.267 98.133 362.667 0v0c46.933-46.933 76.8-110.933 76.8-179.2s-25.6-132.267-76.8-179.2l-375.467-375.467c-4.267-8.533-12.8-8.533-17.067-8.533zM302.933 810.667c-55.467 0-110.933-21.333-153.6-64-85.333-85.333-85.333-217.6 0-302.933l362.667-362.667 362.667 362.667c38.4 38.4 64 93.867 64 149.333s-21.333 110.933-64 149.333v0c-42.667 46.933-93.867 68.267-149.333 68.267v0c-55.467 0-110.933-21.333-149.333-64v0c0 0 0 0 0 0l-46.933-42.667c-8.533-8.533-21.333-8.533-29.867 0l-46.933 42.667c-42.667 42.667-98.133 64-149.333 64z" />
<glyph unicode="&#xe920;" glyph-name="t4-mail" d="M853.333 85.333h-682.667c-59.733 0-106.667 46.933-106.667 106.667v512c0 59.733 46.933 106.667 106.667 106.667h682.667c59.733 0 106.667-46.933 106.667-106.667v-512c0-59.733-46.933-106.667-106.667-106.667zM170.667 768c-34.133 0-64-29.867-64-64v-512c0-34.133 29.867-64 64-64h682.667c34.133 0 64 29.867 64 64v512c0 34.133-29.867 64-64 64h-682.667zM512 384c-4.267 0-8.533 0-12.8 4.267l-426.667 298.667c-8.533 4.267-12.8 21.333-4.267 29.867s21.333 12.8 29.867 4.267l413.867-290.133 413.867 290.133c8.533 8.533 21.333 4.267 29.867-4.267s4.267-21.333-4.267-29.867l-426.667-298.667c-4.267-4.267-8.533-4.267-12.8-4.267z" />
<glyph unicode="&#xe921;" glyph-name="t4-search" d="M469.333 128c-200.533 0-362.667 162.133-362.667 362.667s162.133 362.667 362.667 362.667c200.533 0 362.667-162.133 362.667-362.667s-162.133-362.667-362.667-362.667zM469.333 810.667c-174.933 0-320-145.067-320-320s145.067-320 320-320 320 145.067 320 320-145.067 320-320 320zM896 42.667c-4.267 0-12.8 0-17.067 4.267l-183.467 187.733c-8.533 8.533-8.533 21.333 0 29.867s21.333 8.533 29.867 0l183.467-183.467c8.533-8.533 8.533-21.333 0-29.867 0-8.533-8.533-8.533-12.8-8.533z" />
<glyph unicode="&#xe922;" glyph-name="t4-shopping-cart" d="M384 0c-34.133 0-64 29.867-64 64s29.867 64 64 64 64-29.867 64-64-29.867-64-64-64zM384 85.333c-12.8 0-21.333-8.533-21.333-21.333s8.533-21.333 21.333-21.333 21.333 8.533 21.333 21.333-8.533 21.333-21.333 21.333zM853.333 0c-34.133 0-64 29.867-64 64s29.867 64 64 64 64-29.867 64-64-29.867-64-64-64zM853.333 85.333c-12.8 0-21.333-8.533-21.333-21.333s8.533-21.333 21.333-21.333 21.333 8.533 21.333 21.333-8.533 21.333-21.333 21.333zM409.6 256c-51.2 0-93.867 34.133-102.4 85.333l-72.533 358.4c0 0 0 0 0 4.267l-38.4 192h-153.6c-12.8 0-21.333 8.533-21.333 21.333s8.533 21.333 21.333 21.333h170.667c8.533 0 17.067-8.533 21.333-17.067l38.4-196.267h708.267c4.267 0 12.8-4.267 17.067-8.533s4.267-12.8 4.267-17.067l-68.267-358.4c-8.533-51.2-55.467-85.333-106.667-85.333h-418.133c4.267 0 0 0 0 0zM281.6 682.667l68.267-332.8c4.267-29.867 34.133-51.2 64-51.2h413.867c29.867 0 59.733 21.333 64 51.2l64 332.8h-674.133z" />
<glyph unicode="&#xe923;" glyph-name="t4-tag" d="M512 34.133c-25.6 0-55.467 8.533-76.8 29.867l-366.933 366.933c-4.267 4.267-4.267 8.533-4.267 17.067v426.667c0 12.8 8.533 21.333 21.333 21.333h426.667c4.267 0 12.8-4.267 17.067-4.267l366.933-366.933c42.667-42.667 42.667-110.933 0-149.333v0l-307.2-307.2c-21.333-21.333-51.2-34.133-76.8-34.133zM106.667 456.533l358.4-358.4c25.6-25.6 64-25.6 89.6 0l307.2 307.2c25.6 25.6 25.6 64 0 89.6l-358.4 358.4h-396.8v-396.8zM878.933 388.267v0 0zM298.667 640c-12.8 0-21.333 8.533-21.333 21.333s8.533 21.333 21.333 21.333v0c12.8 0 21.333-8.533 21.333-21.333s-8.533-21.333-21.333-21.333z" />
<glyph unicode="&#xe924;" glyph-name="t4-truck" d="M682.667 256h-640c-12.8 0-21.333 8.533-21.333 21.333v554.667c0 12.8 8.533 21.333 21.333 21.333h640c12.8 0 21.333-8.533 21.333-21.333v-554.667c0-12.8-8.533-21.333-21.333-21.333zM64 298.667h597.333v512h-597.333v-512zM981.333 256h-298.667c-12.8 0-21.333 8.533-21.333 21.333v341.333c0 12.8 8.533 21.333 21.333 21.333h170.667c4.267 0 12.8-4.267 17.067-4.267l128-128c4.267-4.267 4.267-8.533 4.267-17.067v-213.333c0-12.8-8.533-21.333-21.333-21.333zM704 298.667h256v183.467l-115.2 115.2h-140.8v-298.667zM234.667 42.667c-72.533 0-128 55.467-128 128s55.467 128 128 128 128-55.467 128-128-55.467-128-128-128zM234.667 256c-46.933 0-85.333-38.4-85.333-85.333s38.4-85.333 85.333-85.333 85.333 38.4 85.333 85.333-38.4 85.333-85.333 85.333zM789.333 42.667c-72.533 0-128 55.467-128 128s55.467 128 128 128 128-55.467 128-128-55.467-128-128-128zM789.333 256c-46.933 0-85.333-38.4-85.333-85.333s38.4-85.333 85.333-85.333 85.333 38.4 85.333 85.333-38.4 85.333-85.333 85.333z" />
<glyph unicode="&#xe925;" glyph-name="t4-twitter" d="M354.133 46.933c-106.667 0-217.6 29.867-320 85.333-8.533 4.267-12.8 12.8-8.533 25.6 4.267 8.533 12.8 17.067 21.333 17.067 89.6-4.267 174.933 17.067 251.733 59.733-179.2 93.867-221.867 234.667-226.133 341.333-8.533 119.467 34.133 217.6 34.133 221.867 4.267 8.533 12.8 12.8 21.333 12.8s17.067-4.267 21.333-8.533c76.8-115.2 204.8-183.467 341.333-183.467v21.333c0 64 25.6 123.733 72.533 162.133 85.333 72.533 213.333 68.267 290.133-8.533 42.667 12.8 81.067 34.133 115.2 59.733 8.533 4.267 17.067 4.267 25.6 0s12.8-12.8 8.533-21.333c-12.8-59.733-42.667-115.2-85.333-157.867 0-8.533 0-17.067 0-29.867 0-226.133-98.133-413.867-273.067-516.267-89.6-55.467-187.733-81.067-290.133-81.067zM128 132.267c166.4-68.267 345.6-59.733 494.933 29.867 162.133 93.867 251.733 268.8 251.733 482.133 0 8.533 0 21.333-4.267 29.867 0 8.533 0 12.8 4.267 21.333 25.6 25.6 46.933 59.733 64 93.867-25.6-21.333-55.467-34.133-85.333-42.667-8.533-4.267-17.067 0-21.333 8.533-59.733 72.533-170.667 76.8-238.933 17.067-38.4-34.133-59.733-81.067-59.733-132.267v-42.667c0-12.8-8.533-21.333-21.333-21.333-145.067-4.267-285.867 59.733-375.467 170.667-29.867-93.867-81.067-358.4 213.333-490.667 8.533-4.267 12.8-8.533 12.8-17.067s-4.267-17.067-8.533-21.333c-68.267-46.933-145.067-76.8-226.133-85.333z" />
<glyph unicode="&#xe926;" glyph-name="t4-plus" d="M512 106.667c-25.6 0-42.667 17.067-42.667 42.667v597.333c0 25.6 17.067 42.667 42.667 42.667s42.667-17.067 42.667-42.667v-597.333c0-25.6-17.067-42.667-42.667-42.667zM810.667 405.333h-597.333c-25.6 0-42.667 17.067-42.667 42.667s17.067 42.667 42.667 42.667h597.333c25.6 0 42.667-17.067 42.667-42.667s-17.067-42.667-42.667-42.667z" />
<glyph unicode="&#xe927;" glyph-name="whatsapp" d="M784.125 719.875c-72.25 72.25-168.25 112.125-270.5 112.125-210.75 0-382.375-171.5-382.375-382.25-0.125-67.375 17.5-133.125 51-191.125l-54.25-198.125 202.75 53.25c55.75-30.5 118.75-46.5 182.75-46.625h0.125c210.75 0 382.25 171.5 382.375 382.375 0 102.125-39.75 198.125-111.875 270.375zM513.625 131.75h-0.125c-57 0-113 15.375-161.75 44.25l-11.625 6.875-120.375-31.5 32.125 117.25-7.5 12c-31.875 50.625-48.625 109.125-48.625 169.125 0 175.125 142.625 317.625 318 317.625 84.875 0 164.625-33.125 224.625-93.125 60-60.125 93-139.875 93-224.75 0-175.25-142.625-317.75-317.75-317.75zM687.875 369.75c-9.5 4.75-56.5 27.875-65.25 31-8.75 3.25-15.125 4.75-21.5-4.75-6.375-9.625-24.625-31.125-30.25-37.5-5.5-6.25-11.125-7.125-20.625-2.375-9.625 4.75-40.375 14.875-76.875 47.5-28.375 25.25-47.625 56.625-53.125 66.125-5.625 9.625-0.625 14.75 4.125 19.5 4.375 4.25 9.625 11.125 14.375 16.75 4.75 5.5 6.375 9.5 9.625 15.875 3.125 6.375 1.5 12-0.875 16.75s-21.5 51.875-29.5 71c-7.75 18.625-15.625 16-21.5 16.375-5.5 0.25-11.875 0.25-18.25 0.25s-16.75-2.375-25.5-12c-8.75-9.5-33.375-32.625-33.375-79.625s34.25-92.5 39-98.875c4.75-6.25 67.375-102.75 163.25-144.125 22.75-9.875 40.5-15.75 54.375-20.125 22.875-7.25 43.75-6.25 60.25-3.875 18.375 2.75 56.5 23.125 64.5 45.5 7.875 22.25 7.875 41.375 5.5 45.375s-8.75 6.375-18.375 11.25z" />
<glyph unicode="&#xe928;" glyph-name="times-solid" d="M231 775l-46-46 281-281-281-281 46-46 281 281 281-281 46 46-281 281 281 281-46 46-281-281z" />
<glyph unicode="&#xe929;" glyph-name="search-solid" d="M608 864c-176.375 0-320-143.625-320-320 0-76.625 26.875-146.875 72-202l-255-255 46-46 255 255c55.125-45.125 125.375-72 202-72 176.375 0 320 143.625 320 320s-143.625 320-320 320zM608 800c141.75 0 256-114.25 256-256s-114.25-256-256-256c-141.75 0-256 114.25-256 256s114.25 256 256 256z" />
<glyph unicode="&#xe92a;" glyph-name="shopping-cart-solid" d="M160 736c-17.625 0-32-14.375-32-32s14.375-32 32-32h71l84-336c7.125-28.5 32.625-48 62-48h367c28.875 0 53.375 19.125 61 47l83 305h-536l16-64h437l-61-224h-367l-84 336c-7.125 28.5-32.625 48-62 48zM704 288c-52.625 0-96-43.375-96-96s43.375-96 96-96c52.625 0 96 43.375 96 96s-43.375 96-96 96zM416 288c-52.625 0-96-43.375-96-96s43.375-96 96-96c52.625 0 96 43.375 96 96s-43.375 96-96 96zM416 224c18 0 32-14 32-32s-14-32-32-32c-18 0-32 14-32 32s14 32 32 32zM704 224c18 0 32-14 32-32s-14-32-32-32c-18 0-32 14-32 32s14 32 32 32z" />
<glyph unicode="&#xe92b;" glyph-name="shopping-cart-solid1" d="M160 736c-17.625 0-32-14.375-32-32s14.375-32 32-32h71l84-336c7.125-28.5 32.625-48 62-48h367c28.875 0 53.375 19.125 61 47l83 305h-536l16-64h437l-61-224h-367l-84 336c-7.125 28.5-32.625 48-62 48zM704 288c-52.625 0-96-43.375-96-96s43.375-96 96-96c52.625 0 96 43.375 96 96s-43.375 96-96 96zM416 288c-52.625 0-96-43.375-96-96s43.375-96 96-96c52.625 0 96 43.375 96 96s-43.375 96-96 96zM416 224c18 0 32-14 32-32s-14-32-32-32c-18 0-32 14-32 32s14 32 32 32zM704 224c18 0 32-14 32-32s-14-32-32-32c-18 0-32 14-32 32s14 32 32 32z" />
<glyph unicode="&#xe92c;" glyph-name="user" d="M512 800c-123.375 0-224-100.625-224-224 0-77.125 39.375-145.625 99-186-114.125-49-195-162.25-195-294h64c0 141.75 114.25 256 256 256s256-114.25 256-256h64c0 131.75-80.875 245-195 294 59.625 40.375 99 108.875 99 186 0 123.375-100.625 224-224 224zM512 736c88.75 0 160-71.25 160-160s-71.25-160-160-160c-88.75 0-160 71.25-160 160s71.25 160 160 160z" />
<glyph unicode="&#xe92d;" glyph-name="heart2" d="M889.173 763.307c-42.47 42.49-101.153 68.771-165.973 68.771s-123.503-26.282-165.973-68.77l-45.227-45.227-45.227 45.227c-42.476 42.476-101.157 68.748-165.973 68.748-129.633 0-234.722-105.089-234.722-234.722 0-64.817 26.272-123.497 68.748-165.973l377.173-377.173 377.173 377.173c42.49 42.47 68.771 101.153 68.771 165.973s-26.282 123.503-68.77 165.973l-0.001 0.001z" />
<glyph unicode="&#xe92e;" glyph-name="t4-arrow-down1" d="M512 128c-12.8 0-21.333 8.533-21.333 21.333v597.333c0 12.8 8.533 21.333 21.333 21.333s21.333-8.533 21.333-21.333v-597.333c0-12.8-8.533-21.333-21.333-21.333zM512 128c-4.267 0-12.8 0-17.067 4.267l-298.667 298.667c-8.533 8.533-8.533 21.333 0 29.867s21.333 8.533 29.867 0l281.6-281.6 281.6 281.6c8.533 8.533 21.333 8.533 29.867 0s8.533-21.333 0-29.867l-298.667-298.667c4.267-4.267-4.267-4.267-8.533-4.267z" />
<glyph unicode="&#xe92f;" glyph-name="t4-arrow-left1" d="M810.667 426.667h-597.333c-12.8 0-21.333 8.533-21.333 21.333s8.533 21.333 21.333 21.333h597.333c12.8 0 21.333-8.533 21.333-21.333s-8.533-21.333-21.333-21.333zM512 128c-4.267 0-12.8 0-17.067 4.267l-298.667 298.667c-8.533 8.533-8.533 21.333 0 29.867l298.667 298.667c8.533 8.533 21.333 8.533 29.867 0s8.533-21.333 0-29.867l-281.6-281.6 281.6-281.6c8.533-8.533 8.533-21.333 0-29.867 0-8.533-8.533-8.533-12.8-8.533z" />
<glyph unicode="&#xe930;" glyph-name="t4-arrow-right" d="M810.667 426.667h-597.333c-12.8 0-21.333 8.533-21.333 21.333s8.533 21.333 21.333 21.333h597.333c12.8 0 21.333-8.533 21.333-21.333s-8.533-21.333-21.333-21.333zM512 128c-4.267 0-12.8 0-17.067 4.267-8.533 8.533-8.533 21.333 0 29.867l281.6 281.6-281.6 281.6c-8.533 8.533-8.533 21.333 0 29.867s21.333 8.533 29.867 0l298.667-298.667c8.533-8.533 8.533-21.333 0-29.867l-298.667-298.667c0 0-8.533 0-12.8 0z" />
<glyph unicode="&#xe931;" glyph-name="t4-arrow-up1" d="M512 128c-12.8 0-21.333 8.533-21.333 21.333v597.333c0 12.8 8.533 21.333 21.333 21.333s21.333-8.533 21.333-21.333v-597.333c0-12.8-8.533-21.333-21.333-21.333zM810.667 426.667c-4.267 0-12.8 0-17.067 4.267l-281.6 285.867-281.6-281.6c-8.533-8.533-21.333-8.533-29.867 0s-8.533 21.333 0 29.867l298.667 298.667c8.533 8.533 21.333 8.533 29.867 0l298.667-298.667c8.533-8.533 8.533-21.333 0-29.867-4.267-8.533-12.8-8.533-17.067-8.533z" />
<glyph unicode="&#xe932;" glyph-name="t4-minus1" d="M810.667 426.667h-597.333c-12.8 0-21.333 8.533-21.333 21.333s8.533 21.333 21.333 21.333h597.333c12.8 0 21.333-8.533 21.333-21.333s-8.533-21.333-21.333-21.333z" />
<glyph unicode="&#xe933;" glyph-name="t4-play1" d="M213.333 42.667c-4.267 0-8.533 0-8.533 4.267-8.533 4.267-12.8 12.8-12.8 17.067v768c0 8.533 4.267 17.067 12.8 17.067 8.533 4.267 17.067 4.267 21.333 0l597.333-384c4.267-4.267 8.533-12.8 8.533-17.067s-4.267-12.8-8.533-17.067l-597.333-384c-4.267-4.267-8.533-4.267-12.8-4.267zM234.667 793.6v-691.2l537.6 345.6-537.6 345.6z" />
<glyph unicode="&#xe934;" glyph-name="t4-plus1" d="M512 128c-12.8 0-21.333 8.533-21.333 21.333v597.333c0 12.8 8.533 21.333 21.333 21.333s21.333-8.533 21.333-21.333v-597.333c0-12.8-8.533-21.333-21.333-21.333zM810.667 426.667h-597.333c-12.8 0-21.333 8.533-21.333 21.333s8.533 21.333 21.333 21.333h597.333c12.8 0 21.333-8.533 21.333-21.333s-8.533-21.333-21.333-21.333z" />
<glyph unicode="&#xe935;" glyph-name="t4-star1" d="M247.467 42.667c-4.267 0-8.533 0-12.8 4.267-8.533 4.267-8.533 12.8-8.533 21.333l46.933 281.6-200.533 200.533c-8.533 4.267-8.533 12.8-8.533 21.333 4.267 8.533 8.533 12.8 17.067 12.8l285.867 42.667 128 256c8.533 12.8 29.867 12.8 38.4 0l128-256 285.867-42.667c8.533 0 12.8-8.533 17.067-12.8 4.267-8.533 0-17.067-4.267-21.333l-204.8-200.533 46.933-281.6c0-8.533 0-17.067-8.533-21.333s-17.067-4.267-21.333 0l-260.267 132.267-251.733-132.267c-4.267-4.267-8.533-4.267-12.8-4.267zM132.267 550.4l183.467-179.2c4.267-4.267 8.533-12.8 4.267-17.067l-42.667-251.733 226.133 119.467c4.267 4.267 12.8 4.267 21.333 0l226.133-119.467-42.667 251.733c0 8.533 0 12.8 4.267 17.067l183.467 179.2-256 34.133c-8.533 0-12.8 4.267-17.067 12.8l-110.933 230.4-110.933-230.4c-4.267-4.267-12.8-8.533-17.067-12.8l-251.733-34.133z" />
<glyph unicode="&#xe936;" glyph-name="t4-check-circle" d="M512 0c0 0 0 0 0 0-247.467 0-448 200.533-448 448 0 119.467 46.933 230.4 132.267 315.733s196.267 132.267 315.733 132.267c0 0 0 0 0 0 64 0 123.733-12.8 183.467-38.4 12.8-4.267 17.067-17.067 12.8-29.867s-17.067-17.067-29.867-12.8c-51.2 21.333-106.667 34.133-166.4 34.133 0 0 0 0 0 0-221.867 0-405.333-183.467-405.333-405.333s183.467-405.333 405.333-405.333c0 0 0 0 0 0 221.867 0 405.333 183.467 405.333 405.333v38.4c0 12.8 8.533 21.333 21.333 21.333s21.333-8.533 21.333-21.333v-34.133c0-247.467-200.533-448-448-448zM512 341.333c-4.267 0-12.8 4.267-17.067 4.267l-128 128c-8.533 8.533-8.533 21.333 0 29.867s21.333 8.533 29.867 0l110.933-110.933 409.6 413.867c8.533 8.533 21.333 8.533 29.867 0s8.533-21.333 0-29.867l-426.667-426.667c4.267-8.533-4.267-8.533-8.533-8.533z" />
<glyph unicode="&#xe937;" glyph-name="tumblr" d="M455 800c-21.75 0-40-18.25-40-40 0-48.375-24.5-82.125-52-106-13.75-12-28.5-21.125-39-27-5.25-2.875-9-4.625-12-6-1.5-0.75-2.25-1.75-3-2s-3.875-1-1 0c-15.5-6.125-26-20.5-26-37v-71c0-21.75 18.25-40 40-40h36v-167c0-11.375 0-59 22-108s72.375-100 155-100c125.875 0 188.375 49.875 193 54 8.625 7.625 14 18.875 14 30v85c0 14.25-8.5 28-21 35-12 6.625-26.625 5.25-39-2l-1 1c0 0-1-1-1-1-2.25-1.25-37-21-75-21-19.75 0-21.125 5.625-25 13s-5 20-5 17v158h99c21.75 0 40 18.125 40 40v96c0 21.875-18.25 40-40 40h-99v119c0 21.75-18.25 40-40 40zM473 736h38v-159h139v-48h-139v-222c0-5.5 0.25-24.25 12-47s41.375-47 82-47c28.875 0 53.875 6.875 73 14v-33c-8.375-6.625-45.625-34-143-34-58.875 0-80.5 27.625-96 62s-17 75.375-17 82v231h-76v31c3.125 1.625 6 2.75 10 5 13.5 7.5 31 19.25 49 35 31.375 27.375 59.875 72.625 68 130z" />
<glyph unicode="&#xe938;" glyph-name="expand-arrows-alt-solid" d="M128 832v-288h64v178l274-274-274-274v178h-64v-288h288v64h-178l274 274 274-274h-178v-64h288v288h-64v-178l-274 274 274 274v-178h64v288h-288v-64h178l-274-274-274 274h178v64z" />
<glyph unicode="&#xe939;" glyph-name="sliders" d="M170.667 42.667c-12.8 0-21.333 8.533-21.333 21.333v298.667c0 12.8 8.533 21.333 21.333 21.333s21.333-8.533 21.333-21.333v-298.667c0-12.8-8.533-21.333-21.333-21.333zM170.667 512c-12.8 0-21.333 8.533-21.333 21.333v298.667c0 12.8 8.533 21.333 21.333 21.333s21.333-8.533 21.333-21.333v-298.667c0-12.8-8.533-21.333-21.333-21.333zM512 42.667c-12.8 0-21.333 8.533-21.333 21.333v384c0 12.8 8.533 21.333 21.333 21.333s21.333-8.533 21.333-21.333v-384c0-12.8-8.533-21.333-21.333-21.333zM512 597.333c-12.8 0-21.333 8.533-21.333 21.333v213.333c0 12.8 8.533 21.333 21.333 21.333s21.333-8.533 21.333-21.333v-213.333c0-12.8-8.533-21.333-21.333-21.333zM853.333 42.667c-12.8 0-21.333 8.533-21.333 21.333v213.333c0 12.8 8.533 21.333 21.333 21.333s21.333-8.533 21.333-21.333v-213.333c0-12.8-8.533-21.333-21.333-21.333zM853.333 426.667c-12.8 0-21.333 8.533-21.333 21.333v384c0 12.8 8.533 21.333 21.333 21.333s21.333-8.533 21.333-21.333v-384c0-12.8-8.533-21.333-21.333-21.333zM298.667 341.333h-256c-12.8 0-21.333 8.533-21.333 21.333s8.533 21.333 21.333 21.333h256c12.8 0 21.333-8.533 21.333-21.333s-8.533-21.333-21.333-21.333zM640 597.333h-256c-12.8 0-21.333 8.533-21.333 21.333s8.533 21.333 21.333 21.333h256c12.8 0 21.333-8.533 21.333-21.333s-8.533-21.333-21.333-21.333zM981.333 256h-256c-12.8 0-21.333 8.533-21.333 21.333s8.533 21.333 21.333 21.333h256c12.8 0 21.333-8.533 21.333-21.333s-8.533-21.333-21.333-21.333z" />
<glyph unicode="&#xe93a;" glyph-name="star-solid" d="M970.75 558.5l-325.5 34.375-133.25 298.875-133.25-298.875-325.5-34.375 243.125-219.125-67.875-320.125 283.5 163.5 283.5-163.5-67.875 320.125z" />
<glyph unicode="&#xe93b;" glyph-name="star" d="M512 892l-29-66-104-233-254-27-72-8 54-48 189-171-53-250-15-70 63 36 221 128 221-128 63-36-15 70-53 250 189 171 54 48-72 8-254 27-104 233zM512 735l82-185 8-17 18-2 201-21-150-135-14-13 4-18 42-197-175 100-16 10-16-10-175-100 42 197 4 18-14 13-150 135 219 23 8 17z" />
<glyph unicode="&#xe93c;" glyph-name="trello" d="M810.667 42.667h-597.333c-59.733 0-106.667 46.933-106.667 106.667v597.333c0 59.733 46.933 106.667 106.667 106.667h597.333c59.733 0 106.667-46.933 106.667-106.667v-597.333c0-59.733-46.933-106.667-106.667-106.667zM213.333 810.667c-34.133 0-64-29.867-64-64v-597.333c0-34.133 29.867-64 64-64h597.333c34.133 0 64 29.867 64 64v597.333c0 34.133-29.867 64-64 64h-597.333zM426.667 256h-128c-12.8 0-21.333 8.533-21.333 21.333v384c0 12.8 8.533 21.333 21.333 21.333h128c12.8 0 21.333-8.533 21.333-21.333v-384c0-12.8-8.533-21.333-21.333-21.333zM320 298.667h85.333v341.333h-85.333v-341.333zM725.333 426.667h-128c-12.8 0-21.333 8.533-21.333 21.333v213.333c0 12.8 8.533 21.333 21.333 21.333h128c12.8 0 21.333-8.533 21.333-21.333v-213.333c0-12.8-8.533-21.333-21.333-21.333zM618.667 469.333h85.333v170.667h-85.333v-170.667z" />
<glyph unicode="&#xe93d;" glyph-name="shopping-bag" d="M512 864c-87.875 0-160-72.125-160-160v-32h-158l-2-30-32-576-2-34h708l-2 34-32 576-2 30h-158v32c0 87.875-72.125 160-160 160zM512 800c53 0 96-43 96-96v-32h-192v32c0 53 43 96 96 96zM254 608h98v-96h64v96h192v-96h64v96h98l28-512h-572z" />
<glyph unicode="&#xe93e;" glyph-name="tag" d="M512 34.133c-25.6 0-55.467 8.533-76.8 29.867l-366.933 366.933c-4.267 4.267-4.267 8.533-4.267 17.067v426.667c0 12.8 8.533 21.333 21.333 21.333h426.667c4.267 0 12.8-4.267 17.067-4.267l366.933-366.933c42.667-42.667 42.667-110.933 0-149.333v0l-307.2-307.2c-21.333-21.333-51.2-34.133-76.8-34.133zM106.667 456.533l358.4-358.4c25.6-25.6 64-25.6 89.6 0l307.2 307.2c25.6 25.6 25.6 64 0 89.6l-358.4 358.4h-396.8v-396.8zM878.933 388.267v0 0zM298.667 640c-12.8 0-21.333 8.533-21.333 21.333s8.533 21.333 21.333 21.333v0c12.8 0 21.333-8.533 21.333-21.333s-8.533-21.333-21.333-21.333z" />
<glyph unicode="&#xe93f;" glyph-name="message-square" d="M128 42.667c-4.267 0-4.267 0-8.533 0-8.533 4.267-12.8 12.8-12.8 21.333v682.667c0 59.733 46.933 106.667 106.667 106.667h597.333c59.733 0 106.667-46.933 106.667-106.667v-426.667c0-59.733-46.933-106.667-106.667-106.667h-503.467l-166.4-166.4c0 0-8.533-4.267-12.8-4.267zM213.333 810.667c-34.133 0-64-29.867-64-64v-631.467l132.267 132.267c4.267 4.267 8.533 4.267 17.067 4.267h512c34.133 0 64 29.867 64 64v430.933c0 34.133-29.867 64-64 64h-597.333z" />
<glyph unicode="&#xe940;" glyph-name="star1" d="M247.467 42.667c-4.267 0-8.533 0-12.8 4.267-8.533 4.267-8.533 12.8-8.533 21.333l46.933 281.6-200.533 200.533c-8.533 4.267-8.533 12.8-8.533 21.333 4.267 8.533 8.533 12.8 17.067 12.8l285.867 42.667 128 256c8.533 12.8 29.867 12.8 38.4 0l128-256 285.867-42.667c8.533 0 12.8-8.533 17.067-12.8 4.267-8.533 0-17.067-4.267-21.333l-204.8-200.533 46.933-281.6c0-8.533 0-17.067-8.533-21.333s-17.067-4.267-21.333 0l-260.267 132.267-251.733-132.267c-4.267-4.267-8.533-4.267-12.8-4.267zM132.267 550.4l183.467-179.2c4.267-4.267 8.533-12.8 4.267-17.067l-42.667-251.733 226.133 119.467c4.267 4.267 12.8 4.267 21.333 0l226.133-119.467-42.667 251.733c0 8.533 0 12.8 4.267 17.067l183.467 179.2-256 34.133c-8.533 0-12.8 4.267-17.067 12.8l-110.933 230.4-110.933-230.4c-4.267-4.267-12.8-8.533-17.067-12.8l-251.733-34.133z" />
<glyph unicode="&#xe941;" glyph-name="map-pin" d="M512-42.667c-4.267 0-8.533 0-12.8 4.267-17.067 12.8-392.533 264.533-392.533 571.733 0 221.867 183.467 405.333 405.333 405.333s405.333-183.467 405.333-405.333c0-307.2-375.467-563.2-392.533-571.733-4.267-4.267-8.533-4.267-12.8-4.267zM512 896c-200.533 0-362.667-162.133-362.667-362.667 0-256 298.667-482.133 362.667-529.067 64 46.933 362.667 273.067 362.667 529.067 0 200.533-162.133 362.667-362.667 362.667zM512 384c-81.067 0-149.333 68.267-149.333 149.333s68.267 149.333 149.333 149.333 149.333-68.267 149.333-149.333-68.267-149.333-149.333-149.333zM512 640c-59.733 0-106.667-46.933-106.667-106.667s46.933-106.667 106.667-106.667c59.733 0 106.667 46.933 106.667 106.667s-46.933 106.667-106.667 106.667z" />
<glyph unicode="&#xe942;" glyph-name="power" d="M512 0c-102.4 0-209.067 38.4-285.867 119.467-157.867 157.867-157.867 413.867 0 571.733 8.533 8.533 21.333 8.533 29.867 0s8.533-21.333 0-29.867c-140.8-140.8-140.8-371.2 0-512s371.2-140.8 512 0c140.8 140.8 140.8 371.2 0 512-8.533 8.533-8.533 21.333 0 29.867s21.333 8.533 29.867 0c157.867-157.867 157.867-413.867 0-571.733-76.8-81.067-183.467-119.467-285.867-119.467zM512 426.667c-12.8 0-21.333 8.533-21.333 21.333v426.667c0 12.8 8.533 21.333 21.333 21.333s21.333-8.533 21.333-21.333v-426.667c0-12.8-8.533-21.333-21.333-21.333z" />
<glyph unicode="&#xe943;" glyph-name="trash" d="M896 682.667h-768c-12.8 0-21.333 8.533-21.333 21.333s8.533 21.333 21.333 21.333h768c12.8 0 21.333-8.533 21.333-21.333s-8.533-21.333-21.333-21.333zM725.333 0h-426.667c-59.733 0-106.667 46.933-106.667 106.667v597.333c0 12.8 8.533 21.333 21.333 21.333s21.333-8.533 21.333-21.333v-597.333c0-34.133 29.867-64 64-64h426.667c34.133 0 64 29.867 64 64v597.333c0 12.8 8.533 21.333 21.333 21.333s21.333-8.533 21.333-21.333v-597.333c0-59.733-46.933-106.667-106.667-106.667zM682.667 682.667c-12.8 0-21.333 8.533-21.333 21.333v85.333c0 34.133-29.867 64-64 64h-170.667c-34.133 0-64-29.867-64-64v-85.333c0-12.8-8.533-21.333-21.333-21.333s-21.333 8.533-21.333 21.333v85.333c0 59.733 46.933 106.667 106.667 106.667h170.667c59.733 0 106.667-46.933 106.667-106.667v-85.333c0-12.8-8.533-21.333-21.333-21.333z" />
<glyph unicode="&#xe944;" glyph-name="home" d="M810.667 0h-597.333c-59.733 0-106.667 46.933-106.667 106.667v469.333c0 8.533 4.267 12.8 8.533 17.067l384 298.667c8.533 4.267 17.067 4.267 25.6 0l384-298.667c4.267-4.267 8.533-8.533 8.533-17.067v-469.333c0-59.733-46.933-106.667-106.667-106.667zM149.333 567.467v-460.8c0-34.133 29.867-64 64-64h597.333c34.133 0 64 29.867 64 64v460.8l-362.667 281.6-362.667-281.6zM640 0c-12.8 0-21.333 8.533-21.333 21.333v405.333h-213.333v-405.333c0-12.8-8.533-21.333-21.333-21.333s-21.333 8.533-21.333 21.333v426.667c0 12.8 8.533 21.333 21.333 21.333h256c12.8 0 21.333-8.533 21.333-21.333v-426.667c0-12.8-8.533-21.333-21.333-21.333z" />
<glyph unicode="&#xe945;" glyph-name="credit-card" d="M896 85.333h-768c-59.733 0-106.667 46.933-106.667 106.667v512c0 59.733 46.933 106.667 106.667 106.667h768c59.733 0 106.667-46.933 106.667-106.667v-512c0-59.733-46.933-106.667-106.667-106.667zM128 768c-34.133 0-64-29.867-64-64v-512c0-34.133 29.867-64 64-64h768c34.133 0 64 29.867 64 64v512c0 34.133-29.867 64-64 64h-768zM981.333 512h-938.667c-12.8 0-21.333 8.533-21.333 21.333s8.533 21.333 21.333 21.333h938.667c12.8 0 21.333-8.533 21.333-21.333s-8.533-21.333-21.333-21.333z" />
<glyph unicode="&#xe946;" glyph-name="user-plus" d="M682.667 42.667c-12.8 0-21.333 8.533-21.333 21.333v85.333c0 81.067-68.267 149.333-149.333 149.333h-298.667c-81.067 0-149.333-68.267-149.333-149.333v-85.333c0-12.8-8.533-21.333-21.333-21.333s-21.333 8.533-21.333 21.333v85.333c0 106.667 85.333 192 192 192h298.667c106.667 0 192-85.333 192-192v-85.333c0-12.8-8.533-21.333-21.333-21.333zM362.667 469.333c-106.667 0-192 85.333-192 192s85.333 192 192 192 192-85.333 192-192-85.333-192-192-192zM362.667 810.667c-81.067 0-149.333-68.267-149.333-149.333s68.267-149.333 149.333-149.333 149.333 68.267 149.333 149.333-68.267 149.333-149.333 149.333zM853.333 341.333c-12.8 0-21.333 8.533-21.333 21.333v256c0 12.8 8.533 21.333 21.333 21.333s21.333-8.533 21.333-21.333v-256c0-12.8-8.533-21.333-21.333-21.333zM981.333 469.333h-256c-12.8 0-21.333 8.533-21.333 21.333s8.533 21.333 21.333 21.333h256c12.8 0 21.333-8.533 21.333-21.333s-8.533-21.333-21.333-21.333z" />
<glyph unicode="&#xe947;" glyph-name="download" d="M810.667 42.667h-597.333c-59.733 0-106.667 46.933-106.667 106.667v170.667c0 12.8 8.533 21.333 21.333 21.333s21.333-8.533 21.333-21.333v-170.667c0-34.133 29.867-64 64-64h597.333c34.133 0 64 29.867 64 64v170.667c0 12.8 8.533 21.333 21.333 21.333s21.333-8.533 21.333-21.333v-170.667c0-59.733-46.933-106.667-106.667-106.667zM512 298.667c-4.267 0-12.8 0-17.067 4.267l-213.333 213.333c-8.533 8.533-8.533 21.333 0 29.867s21.333 8.533 29.867 0l196.267-196.267 196.267 196.267c8.533 8.533 21.333 8.533 29.867 0s8.533-21.333 0-29.867l-213.333-213.333c4.267-4.267-4.267-4.267-8.533-4.267zM512 298.667c-12.8 0-21.333 8.533-21.333 21.333v512c0 12.8 8.533 21.333 21.333 21.333s21.333-8.533 21.333-21.333v-512c0-12.8-8.533-21.333-21.333-21.333z" />
<glyph unicode="&#xe948;" glyph-name="tool" d="M217.6 42.667c-29.867 0-55.467 12.8-81.067 34.133-21.333 21.333-34.133 51.2-34.133 81.067s12.8 59.733 34.133 81.067l285.867 285.867c-51.2 136.533 8.533 294.4 145.067 354.133 72.533 34.133 157.867 34.133 230.4 0 4.267-4.267 12.8-8.533 12.8-17.067s0-12.8-4.267-17.067l-162.133-162.133c-8.533-8.533-8.533-21.333 0-29.867l68.267-68.267c8.533-8.533 21.333-8.533 29.867 0l162.133 162.133c0-4.267 8.533 0 17.067 0s12.8-4.267 17.067-12.8c29.867-68.267 34.133-140.8 8.533-213.333-25.6-68.267-76.8-123.733-145.067-153.6s-145.067-34.133-213.333-4.267l-290.133-285.867c-21.333-21.333-51.2-34.133-81.067-34.133zM682.667 853.333c-34.133 0-64-8.533-98.133-21.333-119.467-55.467-170.667-192-115.2-311.467 4.267-8.533 0-17.067-4.267-25.6l-294.4-290.133c-12.8-12.8-21.333-29.867-21.333-46.933s8.533-38.4 21.333-51.2c25.6-25.6 72.533-25.6 98.133 0l294.4 294.4c4.267 4.267 17.067 8.533 25.6 4.267 59.733-29.867 132.267-29.867 192 0 55.467 25.6 102.4 72.533 123.733 132.267 17.067 46.933 21.333 102.4 4.267 149.333l-136.533-136.533c-25.6-25.6-64-25.6-89.6 0l-68.267 68.267c-25.6 25.6-25.6 64 0 89.6 0 0 0 0 0 0l136.533 136.533c-21.333 4.267-46.933 8.533-68.267 8.533z" />
<glyph unicode="&#xe949;" glyph-name="thumbs-up" d="M780.8 0c0 0 0 0 0 0h-610.133c-59.733 0-106.667 46.933-106.667 106.667v298.667c0 59.733 46.933 106.667 106.667 106.667h115.2l166.4 371.2c4.267 8.533 12.8 12.8 21.333 12.8 81.067 0 149.333-68.267 149.333-149.333v-149.333h221.867c4.267 0 12.8 0 17.067 0 29.867-4.267 51.2-21.333 68.267-42.667s25.6-51.2 21.333-81.067l-59.733-384c-12.8-51.2-59.733-89.6-110.933-89.6zM320 42.667h460.8c34.133 0 59.733 21.333 64 55.467l59.733 384c4.267 17.067 0 34.133-12.8 46.933-8.533 12.8-25.6 21.333-42.667 25.6-4.267 0-8.533 0-8.533 0h-243.2c-12.8 0-21.333 8.533-21.333 21.333v170.667c0 55.467-42.667 98.133-93.867 106.667l-162.133-366.933v-443.733zM170.667 469.333c-34.133 0-64-29.867-64-64v-298.667c0-34.133 29.867-64 64-64h106.667v426.667h-106.667z" />
<glyph unicode="&#xe94a;" glyph-name="settings" d="M512 298.667c-81.067 0-149.333 68.267-149.333 149.333s68.267 149.333 149.333 149.333 149.333-68.267 149.333-149.333-68.267-149.333-149.333-149.333zM512 554.667c-59.733 0-106.667-46.933-106.667-106.667s46.933-106.667 106.667-106.667c59.733 0 106.667 46.933 106.667 106.667s-46.933 106.667-106.667 106.667zM516.267-42.667c-59.733 0-106.667 46.933-106.667 106.667 0 25.6-12.8 42.667-34.133 46.933-21.333 8.533-42.667 4.267-55.467-8.533-42.667-42.667-110.933-42.667-153.6-4.267 0 0 0 0 0 0-21.333 21.333-29.867 46.933-29.867 76.8s12.8 55.467 29.867 76.8c17.067 17.067 21.333 38.4 12.8 55.467s-25.6 29.867-46.933 29.867h-4.267c-59.733 0-106.667 46.933-106.667 106.667s46.933 106.667 106.667 106.667c25.6 0 42.667 12.8 46.933 34.133 8.533 21.333 4.267 42.667-8.533 55.467-42.667 42.667-42.667 110.933-4.267 153.6 42.667 42.667 110.933 42.667 149.333 0 17.067-17.067 38.4-21.333 55.467-12.8 4.267 0 4.267 0 8.533 0 17.067 8.533 25.6 25.6 25.6 42.667v8.533c0 59.733 46.933 106.667 106.667 106.667s106.667-46.933 106.667-106.667c0-21.333 12.8-42.667 29.867-46.933 17.067-8.533 38.4-4.267 55.467 8.533 21.333 21.333 51.2 34.133 76.8 34.133 0 0 0 0 0 0 29.867 0 55.467-12.8 76.8-29.867 0 0 0 0 0 0v0c42.667-42.667 42.667-110.933 0-149.333-17.067-17.067-21.333-38.4-12.8-55.467 0-4.267 0-4.267 0-8.533 8.533-17.067 25.6-25.6 42.667-25.6h12.8c59.733 0 106.667-46.933 106.667-106.667s-46.933-106.667-106.667-106.667c-21.333 0-42.667-12.8-46.933-29.867 0 0 0 0 0 0-8.533-17.067-4.267-38.4 8.533-55.467 42.667-42.667 42.667-110.933 4.267-153.6-42.667-42.667-110.933-42.667-149.333 0-17.067 17.067-38.4 21.333-55.467 12.8s-29.867-25.6-29.867-46.933v-8.533c-4.267-59.733-51.2-106.667-110.933-106.667zM354.133 157.867c12.8 0 25.6-4.267 38.4-8.533 34.133-12.8 59.733-46.933 59.733-85.333 0 0 0-4.267 0-4.267 0-34.133 29.867-64 64-64s64 29.867 64 64v8.533c0 38.4 21.333 68.267 55.467 85.333s72.533 8.533 102.4-17.067c25.6-25.6 68.267-25.6 93.867-4.267 25.6 25.6 25.6 64 0 89.6-29.867 29.867-38.4 68.267-21.333 102.4 12.8 34.133 46.933 55.467 85.333 55.467s68.267 29.867 68.267 64-29.867 64-64 64h-8.533c-38.4 0-68.267 21.333-85.333 55.467 0 4.267 0 4.267 0 8.533-12.8 34.133-4.267 72.533 21.333 98.133s25.6 68.267 4.267 93.867c0 0 0 0 0 0-12.8 12.8-29.867 17.067-46.933 17.067v0c-17.067 0-34.133-8.533-46.933-17.067-29.867-29.867-68.267-38.4-102.4-21.333-34.133 12.8-55.467 46.933-55.467 85.333s-29.867 68.267-64 68.267-68.267-29.867-68.267-64v-8.533c0-38.4-21.333-68.267-55.467-85.333-4.267 0-4.267 0-8.533 0-34.133-12.8-68.267-4.267-93.867 21.333-29.867 25.6-72.533 25.6-93.867 4.267-25.6-25.6-25.6-68.267 0-93.867 29.867-29.867 38.4-68.267 21.333-102.4-12.8-34.133-46.933-59.733-85.333-59.733 0 0-4.267 0-4.267 0-34.133 0-64-29.867-64-64s29.867-64 64-64h8.533c38.4 0 68.267-21.333 85.333-55.467s8.533-72.533-17.067-102.4c-12.8-12.8-21.333-29.867-21.333-46.933s8.533-34.133 17.067-46.933v0c0 0 0 0 0 0 25.6-25.6 64-25.6 89.6 0 17.067 21.333 42.667 29.867 64 29.867zM827.733 320v0 0z" />
<glyph unicode="&#xe94b;" glyph-name="send" d="M469.333 384c-4.267 0-12.8 0-17.067 4.267-8.533 8.533-8.533 21.333 0 29.867l469.333 469.333c8.533 8.533 21.333 8.533 29.867 0s8.533-21.333 0-29.867l-469.333-469.333c0-4.267-8.533-4.267-12.8-4.267zM640 0c-8.533 0-17.067 4.267-21.333 12.8l-166.4 375.467-375.467 166.4c-8.533 4.267-12.8 12.8-12.8 21.333s4.267 17.067 12.8 21.333l853.333 298.667c8.533 4.267 17.067 0 21.333-4.267s8.533-12.8 4.267-21.333l-298.667-853.333c0-12.8-8.533-17.067-17.067-17.067 0 0 0 0 0 0zM145.067 571.733l332.8-149.333c4.267-4.267 8.533-4.267 12.8-12.8l149.333-332.8 264.533 759.467-759.467-264.533z" />
<glyph unicode="&#xe94c;" glyph-name="phone-call" d="M853.333 4.267c-4.267 0-4.267 0-8.533 0-132.267 12.8-264.533 59.733-379.733 132.267-106.667 68.267-196.267 157.867-260.267 264.533-76.8 110.933-119.467 243.2-136.533 379.733 0 25.6 8.533 55.467 25.6 76.8s42.667 34.133 72.533 38.4c4.267 0 4.267 0 8.533 0h128c51.2 0 98.133-38.4 106.667-93.867 4.267-38.4 12.8-76.8 29.867-115.2 12.8-38.4 4.267-81.067-25.6-110.933l-42.667-42.667c55.467-93.867 132.267-170.667 226.133-226.133l42.667 42.667c29.867 29.867 72.533 38.4 110.933 25.6s76.8-25.6 115.2-29.867c55.467-8.533 93.867-55.467 93.867-106.667v-128c0-29.867-12.8-55.467-29.867-76.8-21.333-21.333-46.933-29.867-76.8-29.867 0 0 0 0 0 0zM302.933 853.333c0 0 0 0 0 0h-128c0 0-4.267 0-4.267 0-17.067 0-34.133-8.533-42.667-21.333-12.8-12.8-17.067-29.867-17.067-46.933 12.8-128 59.733-251.733 128-358.4 64-98.133 149.333-187.733 247.467-247.467 106.667-68.267 230.4-115.2 358.4-128 0 0 4.267 0 4.267 0 17.067 0 34.133 8.533 46.933 17.067 12.8 12.8 17.067 29.867 17.067 46.933v128c0 0 0 0 0 0 0 34.133-21.333 59.733-55.467 64-42.667 4.267-85.333 17.067-123.733 29.867-21.333 8.533-51.2 4.267-68.267-12.8l-55.467-55.467c-8.533-8.533-17.067-8.533-25.6-4.267-110.933 64-200.533 153.6-264.533 264.533 0 4.267 4.267 17.067 8.533 21.333l55.467 55.467c17.067 17.067 21.333 42.667 12.8 68.267-12.8 38.4-25.6 81.067-29.867 123.733-4.267 29.867-29.867 55.467-64 55.467zM810.667 554.667c-8.533 0-17.067 8.533-21.333 17.067-17.067 76.8-72.533 136.533-153.6 153.6-12.8 4.267-17.067 12.8-17.067 25.6 4.267 12.8 12.8 17.067 25.6 17.067 93.867-17.067 166.4-89.6 183.467-183.467 4.267-12.8 0-25.6-17.067-29.867 4.267 4.267 0 0 0 0zM981.333 558.933c-12.8 0-21.333 8.533-21.333 17.067-17.067 170.667-149.333 302.933-320 320-12.8 0-21.333 12.8-17.067 25.6 0 12.8 12.8 21.333 25.6 17.067 183.467-21.333 332.8-166.4 354.133-358.4 0-12.8-8.533-21.333-21.333-21.333 0 0 0 0 0 0z" />
<glyph unicode="&#xe94d;" glyph-name="refresh-cw" d="M981.333 512h-256c-12.8 0-21.333 8.533-21.333 21.333s8.533 21.333 21.333 21.333h234.667v234.667c0 12.8 8.533 21.333 21.333 21.333s21.333-8.533 21.333-21.333v-256c0-12.8-8.533-21.333-21.333-21.333zM42.667 85.333c-12.8 0-21.333 8.533-21.333 21.333v256c0 12.8 8.533 21.333 21.333 21.333h256c12.8 0 21.333-8.533 21.333-21.333s-8.533-21.333-21.333-21.333h-234.667v-234.667c0-12.8-8.533-21.333-21.333-21.333zM512 42.667c0 0 0 0 0 0-106.667 0-209.067 42.667-285.867 119.467l-196.267 183.467c-8.533 8.533-8.533 21.333 0 29.867s21.333 8.533 29.867 0l196.267-183.467c68.267-68.267 162.133-106.667 256-106.667 0 0 0 0 0 0 98.133 0 187.733 38.4 256 106.667 38.4 38.4 68.267 85.333 85.333 136.533 4.267 12.8 17.067 17.067 25.6 12.8 12.8-4.267 17.067-17.067 12.8-25.6-21.333-55.467-51.2-110.933-93.867-149.333-76.8-81.067-179.2-123.733-285.867-123.733zM981.333 512c-4.267 0-8.533 0-12.8 4.267l-200.533 187.733c-38.4 38.4-85.333 68.267-136.533 85.333-89.6 34.133-187.733 25.6-277.333-12.8-85.333-42.667-153.6-115.2-183.467-209.067-4.267-8.533-17.067-17.067-29.867-12.8-8.533 4.267-17.067 17.067-12.8 29.867 34.133 102.4 110.933 183.467 209.067 230.4s209.067 51.2 311.467 17.067c55.467-21.333 110.933-51.2 149.333-93.867l196.267-183.467c8.533-8.533 8.533-21.333 0-29.867 0-8.533-8.533-12.8-12.8-12.8z" />
<glyph unicode="&#xe94e;" glyph-name="more-horizontal" d="M512 384c-34.133 0-64 29.867-64 64s29.867 64 64 64 64-29.867 64-64-29.867-64-64-64zM512 469.333c-12.8 0-21.333-8.533-21.333-21.333s8.533-21.333 21.333-21.333 21.333 8.533 21.333 21.333-8.533 21.333-21.333 21.333zM810.667 384c-34.133 0-64 29.867-64 64s29.867 64 64 64 64-29.867 64-64-29.867-64-64-64zM810.667 469.333c-12.8 0-21.333-8.533-21.333-21.333s8.533-21.333 21.333-21.333 21.333 8.533 21.333 21.333-8.533 21.333-21.333 21.333zM213.333 384c-34.133 0-64 29.867-64 64s29.867 64 64 64 64-29.867 64-64-29.867-64-64-64zM213.333 469.333c-12.8 0-21.333-8.533-21.333-21.333s8.533-21.333 21.333-21.333 21.333 8.533 21.333 21.333-8.533 21.333-21.333 21.333z" />
<glyph unicode="&#xe94f;" glyph-name="menu" d="M896 426.667h-768c-12.8 0-21.333 8.533-21.333 21.333s8.533 21.333 21.333 21.333h768c12.8 0 21.333-8.533 21.333-21.333s-8.533-21.333-21.333-21.333zM896 682.667h-768c-12.8 0-21.333 8.533-21.333 21.333s8.533 21.333 21.333 21.333h768c12.8 0 21.333-8.533 21.333-21.333s-8.533-21.333-21.333-21.333zM896 170.667h-768c-12.8 0-21.333 8.533-21.333 21.333s8.533 21.333 21.333 21.333h768c12.8 0 21.333-8.533 21.333-21.333s-8.533-21.333-21.333-21.333z" />
<glyph unicode="&#xe950;" glyph-name="list" d="M896 682.667h-554.667c-12.8 0-21.333 8.533-21.333 21.333s8.533 21.333 21.333 21.333h554.667c12.8 0 21.333-8.533 21.333-21.333s-8.533-21.333-21.333-21.333zM896 426.667h-554.667c-12.8 0-21.333 8.533-21.333 21.333s8.533 21.333 21.333 21.333h554.667c12.8 0 21.333-8.533 21.333-21.333s-8.533-21.333-21.333-21.333zM896 170.667h-554.667c-12.8 0-21.333 8.533-21.333 21.333s8.533 21.333 21.333 21.333h554.667c12.8 0 21.333-8.533 21.333-21.333s-8.533-21.333-21.333-21.333zM128 682.667c-12.8 0-21.333 8.533-21.333 21.333s8.533 21.333 21.333 21.333v0c12.8 0 21.333-8.533 21.333-21.333s-8.533-21.333-21.333-21.333zM128 426.667c-12.8 0-21.333 8.533-21.333 21.333s8.533 21.333 21.333 21.333v0c12.8 0 21.333-8.533 21.333-21.333s-8.533-21.333-21.333-21.333zM128 170.667c-12.8 0-21.333 8.533-21.333 21.333s8.533 21.333 21.333 21.333v0c12.8 0 21.333-8.533 21.333-21.333s-8.533-21.333-21.333-21.333z" />
<glyph unicode="&#xe951;" glyph-name="link" d="M597.333 298.667c-72.533 0-140.8 34.133-187.733 93.867-8.533 8.533-4.267 21.333 4.267 29.867s21.333 4.267 29.867-4.267c64-85.333 183.467-102.4 268.8-38.4 8.533 4.267 12.8 12.8 21.333 17.067l128 128c72.533 76.8 72.533 196.267-4.267 273.067-76.8 72.533-192 72.533-268.8 0l-72.533-72.533c-8.533-8.533-21.333-8.533-29.867 0s-8.533 21.333 0 29.867l72.533 72.533c89.6 89.6 234.667 89.6 324.267 0 93.867-89.6 93.867-238.933 4.267-332.8l-128-128c-8.533-8.533-17.067-17.067-25.6-21.333-38.4-29.867-85.333-46.933-136.533-46.933zM302.933 4.267c-59.733 0-115.2 21.333-162.133 68.267-93.867 89.6-93.867 238.933-4.267 332.8l128 128c8.533 8.533 17.067 17.067 25.6 21.333 51.2 38.4 110.933 51.2 174.933 42.667s115.2-42.667 153.6-89.6c8.533-8.533 4.267-21.333-4.267-29.867s-21.333-4.267-29.867 4.267c-29.867 42.667-76.8 68.267-128 76.8s-102.4-4.267-140.8-38.4c-8.533-4.267-12.8-12.8-21.333-17.067l-128-128c-72.533-76.8-72.533-196.267 4.267-273.067 76.8-72.533 192-72.533 268.8 0l72.533 72.533c8.533 8.533 21.333 8.533 29.867 0s8.533-21.333 0-29.867l-72.533-72.533c-51.2-46.933-110.933-68.267-166.4-68.267z" />
<glyph unicode="&#xe952;" glyph-name="layers" d="M512 426.667c-4.267 0-8.533 0-8.533 4.267l-426.667 213.333c-8.533 0-12.8 8.533-12.8 17.067s4.267 17.067 12.8 17.067l426.667 213.333c4.267 4.267 12.8 4.267 17.067 0l426.667-213.333c8.533-4.267 12.8-12.8 12.8-17.067s-4.267-17.067-12.8-17.067l-426.667-213.333c0-4.267-4.267-4.267-8.533-4.267zM132.267 661.333l379.733-187.733 379.733 187.733-379.733 187.733-379.733-187.733zM512 0c-4.267 0-8.533 0-8.533 4.267l-426.667 213.333c-8.533 4.267-12.8 17.067-8.533 29.867 4.267 8.533 17.067 12.8 29.867 8.533l418.133-209.067 418.133 209.067c8.533 4.267 21.333 0 29.867-8.533 4.267-8.533 0-21.333-8.533-29.867l-426.667-213.333c-8.533-4.267-12.8-4.267-17.067-4.267zM512 213.333c-4.267 0-8.533 0-8.533 4.267l-426.667 213.333c-8.533 4.267-12.8 17.067-8.533 29.867 4.267 8.533 17.067 12.8 29.867 8.533l418.133-209.067 418.133 209.067c8.533 4.267 21.333 0 29.867-8.533 4.267-8.533 0-21.333-8.533-29.867l-426.667-213.333c-8.533-4.267-12.8-4.267-17.067-4.267z" />
<glyph unicode="&#xe953;" glyph-name="coffee" d="M810.667 256h-42.667c-12.8 0-21.333 8.533-21.333 21.333s8.533 21.333 21.333 21.333h42.667c81.067 0 149.333 68.267 149.333 149.333s-68.267 149.333-149.333 149.333h-42.667c-12.8 0-21.333 8.533-21.333 21.333s8.533 21.333 21.333 21.333h42.667c106.667 0 192-85.333 192-192s-85.333-192-192-192zM597.333 42.667h-341.333c-106.667 0-192 85.333-192 192v384c0 12.8 8.533 21.333 21.333 21.333h682.667c12.8 0 21.333-8.533 21.333-21.333v-384c0-106.667-85.333-192-192-192zM106.667 597.333v-362.667c0-81.067 68.267-149.333 149.333-149.333h341.333c81.067 0 149.333 68.267 149.333 149.333v362.667h-640zM256 768c-12.8 0-21.333 8.533-21.333 21.333v128c0 12.8 8.533 21.333 21.333 21.333s21.333-8.533 21.333-21.333v-128c0-12.8-8.533-21.333-21.333-21.333zM426.667 768c-12.8 0-21.333 8.533-21.333 21.333v128c0 12.8 8.533 21.333 21.333 21.333s21.333-8.533 21.333-21.333v-128c0-12.8-8.533-21.333-21.333-21.333zM597.333 768c-12.8 0-21.333 8.533-21.333 21.333v128c0 12.8 8.533 21.333 21.333 21.333s21.333-8.533 21.333-21.333v-128c0-12.8-8.533-21.333-21.333-21.333z" />
<glyph unicode="&#xe954;" glyph-name="cloud" d="M384 85.333c-166.4 0-311.467 110.933-349.867 273.067-25.6 93.867-8.533 192 38.4 273.067 51.2 85.333 128 140.8 221.867 166.4s192 8.533 273.067-38.4c76.8-46.933 136.533-119.467 162.133-204.8h38.4c128 0 234.667-106.667 234.667-234.667s-106.667-234.667-234.667-234.667h-384c0 0 0 0 0 0zM384 768c-25.6 0-55.467-4.267-81.067-8.533-81.067-21.333-149.333-76.8-196.267-149.333-42.667-72.533-55.467-157.867-34.133-243.2 38.4-140.8 162.133-238.933 311.467-238.933 0 0 0 0 0 0h384c106.667 0 192 85.333 192 192s-85.333 192-192 192h-55.467c-8.533 0-17.067 8.533-21.333 17.067-21.333 81.067-72.533 153.6-149.333 196.267-46.933 29.867-102.4 42.667-157.867 42.667z" />
<glyph unicode="&#xe955;" glyph-name="camera" d="M896 42.667h-768c-59.733 0-106.667 46.933-106.667 106.667v469.333c0 59.733 46.933 106.667 106.667 106.667h157.867l81.067 119.467c4.267 4.267 8.533 8.533 17.067 8.533h256c8.533 0 12.8-4.267 17.067-8.533l81.067-119.467h157.867c59.733 0 106.667-46.933 106.667-106.667v-469.333c0-59.733-46.933-106.667-106.667-106.667zM128 682.667c-34.133 0-64-29.867-64-64v-469.333c0-34.133 29.867-64 64-64h768c34.133 0 64 29.867 64 64v469.333c0 34.133-29.867 64-64 64h-170.667c-8.533 0-12.8 4.267-17.067 8.533l-81.067 119.467h-230.4l-81.067-119.467c-4.267-4.267-8.533-8.533-17.067-8.533h-170.667zM512 213.333c-106.667 0-192 85.333-192 192s85.333 192 192 192 192-85.333 192-192-85.333-192-192-192zM512 554.667c-81.067 0-149.333-68.267-149.333-149.333s68.267-149.333 149.333-149.333 149.333 68.267 149.333 149.333-68.267 149.333-149.333 149.333z" />
<glyph unicode="&#xe956;" glyph-name="calendar" d="M810.667 0h-597.333c-59.733 0-106.667 46.933-106.667 106.667v597.333c0 59.733 46.933 106.667 106.667 106.667h597.333c59.733 0 106.667-46.933 106.667-106.667v-597.333c0-59.733-46.933-106.667-106.667-106.667zM213.333 768c-34.133 0-64-29.867-64-64v-597.333c0-34.133 29.867-64 64-64h597.333c34.133 0 64 29.867 64 64v597.333c0 34.133-29.867 64-64 64h-597.333zM682.667 682.667c-12.8 0-21.333 8.533-21.333 21.333v170.667c0 12.8 8.533 21.333 21.333 21.333s21.333-8.533 21.333-21.333v-170.667c0-12.8-8.533-21.333-21.333-21.333zM341.333 682.667c-12.8 0-21.333 8.533-21.333 21.333v170.667c0 12.8 8.533 21.333 21.333 21.333s21.333-8.533 21.333-21.333v-170.667c0-12.8-8.533-21.333-21.333-21.333zM896 512h-768c-12.8 0-21.333 8.533-21.333 21.333s8.533 21.333 21.333 21.333h768c12.8 0 21.333-8.533 21.333-21.333s-8.533-21.333-21.333-21.333z" />
<glyph unicode="&#xe957;" glyph-name="box" d="M512 0c-17.067 0-38.4 4.267-51.2 12.8l-298.667 170.667c-34.133 21.333-55.467 55.467-55.467 93.867v341.333c0 38.4 21.333 72.533 51.2 93.867l298.667 170.667c34.133 17.067 72.533 17.067 106.667 0l298.667-170.667c34.133-21.333 55.467-55.467 55.467-93.867v-341.333c0 0 0 0 0 0 0-38.4-21.333-72.533-51.2-93.867l-298.667-170.667c-17.067-8.533-38.4-12.8-55.467-12.8zM512 853.333c-12.8 0-21.333-4.267-29.867-8.533l-298.667-170.667c-21.333-12.8-34.133-34.133-34.133-55.467v-341.333c0-21.333 12.8-42.667 34.133-55.467l298.667-170.667c21.333-12.8 42.667-12.8 64 0l298.667 170.667c21.333 12.8 29.867 34.133 29.867 55.467v341.333c0 21.333-12.8 42.667-34.133 55.467l-298.667 170.667c-8.533 4.267-17.067 8.533-29.867 8.533zM896 277.333v0 0zM512 426.667c-4.267 0-8.533 0-12.8 4.267l-371.2 213.333c-8.533 4.267-12.8 21.333-8.533 29.867 8.533 8.533 21.333 12.8 29.867 8.533l362.667-209.067 362.667 209.067c8.533 4.267 21.333 4.267 29.867-8.533 4.267-8.533 4.267-21.333-8.533-29.867l-371.2-213.333c-4.267-4.267-8.533-4.267-12.8-4.267zM512-4.267c-12.8 0-21.333 8.533-21.333 21.333v430.933c0 12.8 8.533 21.333 21.333 21.333s21.333-8.533 21.333-21.333v-430.933c0-12.8-8.533-21.333-21.333-21.333z" />
<glyph unicode="&#xe958;" glyph-name="book-open" d="M512 42.667c-12.8 0-21.333 8.533-21.333 21.333 0 59.733-46.933 106.667-106.667 106.667h-298.667c-12.8 0-21.333 8.533-21.333 21.333v640c0 12.8 8.533 21.333 21.333 21.333h256c106.667 0 192-85.333 192-192v-597.333c0-12.8-8.533-21.333-21.333-21.333zM106.667 213.333h277.333c42.667 0 81.067-17.067 106.667-46.933v494.933c0 81.067-68.267 149.333-149.333 149.333h-234.667v-597.333zM512 42.667c-12.8 0-21.333 8.533-21.333 21.333v597.333c0 106.667 85.333 192 192 192h256c12.8 0 21.333-8.533 21.333-21.333v-640c0-12.8-8.533-21.333-21.333-21.333h-298.667c-59.733 0-106.667-46.933-106.667-106.667 0-12.8-8.533-21.333-21.333-21.333zM682.667 810.667c-81.067 0-149.333-68.267-149.333-149.333v-494.933c25.6 25.6 64 46.933 106.667 46.933h277.333v597.333h-234.667z" />
<glyph unicode="&#xe959;" glyph-name="aperture" d="M512 0c-247.467 0-448 200.533-448 448s200.533 448 448 448c247.467 0 448-200.533 448-448s-200.533-448-448-448zM512 853.333c-221.867 0-405.333-183.467-405.333-405.333s183.467-405.333 405.333-405.333 405.333 183.467 405.333 405.333-183.467 405.333-405.333 405.333zM853.333 174.933c-8.533 0-12.8 4.267-17.067 8.533l-243.2 422.4c-4.267 8.533-4.267 21.333 8.533 29.867 8.533 4.267 21.333 4.267 29.867-8.533l243.2-422.4c4.267-8.533 4.267-21.333-8.533-29.867-4.267 0-8.533 0-12.8 0zM904.533 597.333h-490.667c-12.8 0-21.333 8.533-21.333 21.333s8.533 21.333 21.333 21.333h490.667c12.8 0 21.333-8.533 21.333-21.333s-12.8-21.333-21.333-21.333zM315.733 426.667c-4.267 0-8.533 0-8.533 4.267-8.533 4.267-12.8 17.067-8.533 29.867l243.2 422.4c4.267 8.533 17.067 12.8 29.867 8.533 8.533-4.267 12.8-17.067 8.533-29.867l-243.2-422.4c-8.533-8.533-12.8-12.8-21.333-12.8zM413.867 256c-8.533 0-12.8 4.267-17.067 8.533l-247.467 426.667c-4.267 8.533 0 21.333 8.533 29.867 8.533 4.267 21.333 4.267 29.867-8.533l243.2-422.4c4.267-8.533 4.267-21.333-8.533-29.867 0-4.267-4.267-4.267-8.533-4.267zM610.133 256h-490.667c-12.8 0-21.333 8.533-21.333 21.333s8.533 21.333 21.333 21.333h490.667c12.8 0 21.333-8.533 21.333-21.333s-8.533-21.333-21.333-21.333zM465.067 4.267c-4.267 0-8.533 0-8.533 4.267-8.533 4.267-12.8 17.067-8.533 29.867l243.2 422.4c4.267 8.533 17.067 12.8 29.867 8.533 8.533-4.267 12.8-17.067 8.533-29.867l-243.2-422.4c-8.533-12.8-12.8-12.8-21.333-12.8z" />
<glyph unicode="&#xe95a;" glyph-name="award" d="M512 298.667c-174.933 0-320 145.067-320 320s145.067 320 320 320 320-145.067 320-320-145.067-320-320-320zM512 896c-153.6 0-277.333-123.733-277.333-277.333s123.733-277.333 277.333-277.333 277.333 123.733 277.333 277.333-123.733 277.333-277.333 277.333zM725.333-42.667c-4.267 0-8.533 0-12.8 4.267l-200.533 119.467-200.533-119.467c-8.533-4.267-17.067-4.267-21.333 0-8.533 4.267-8.533 12.8-8.533 21.333l51.2 388.267c0 12.8 12.8 21.333 25.6 17.067 12.8 0 21.333-12.8 17.067-25.6l-51.2-341.333 174.933 106.667c8.533 4.267 17.067 4.267 21.333 0l174.933-106.667-46.933 345.6c0 12.8 8.533 21.333 17.067 25.6 12.8 0 21.333-8.533 25.6-17.067l51.2-388.267c0-8.533-4.267-17.067-8.533-21.333 0-8.533-4.267-8.533-8.533-8.533z" />
<glyph unicode="&#xe95b;" glyph-name="bell" d="M896 213.333h-768c-8.533 0-17.067 4.267-21.333 17.067s0 17.067 8.533 25.6c0 0 119.467 85.333 119.467 366.933 0 153.6 123.733 277.333 277.333 277.333s277.333-123.733 277.333-277.333c0-281.6 119.467-366.933 119.467-366.933 8.533-4.267 12.8-17.067 8.533-25.6-4.267-12.8-12.8-17.067-21.333-17.067zM179.2 256h665.6c-42.667 51.2-98.133 162.133-98.133 362.667 0 128-106.667 234.667-234.667 234.667s-234.667-106.667-234.667-234.667c0-200.533-55.467-311.467-98.133-362.667zM512 0c-17.067 0-38.4 4.267-51.2 12.8-17.067 8.533-29.867 21.333-38.4 38.4-8.533 12.8-4.267 25.6 4.267 29.867s21.333 4.267 29.867-8.533c4.267-8.533 12.8-17.067 21.333-21.333 29.867-17.067 68.267-8.533 89.6 21.333 4.267 8.533 17.067 12.8 29.867 8.533 8.533-4.267 12.8-17.067 8.533-29.867-21.333-29.867-55.467-51.2-93.867-51.2z" />
<glyph unicode="&#xe95c;" glyph-name="battery" d="M725.333 170.667h-597.333c-59.733 0-106.667 46.933-106.667 106.667v341.333c0 59.733 46.933 106.667 106.667 106.667h597.333c59.733 0 106.667-46.933 106.667-106.667v-341.333c0-59.733-46.933-106.667-106.667-106.667zM128 682.667c-34.133 0-64-29.867-64-64v-341.333c0-34.133 29.867-64 64-64h597.333c34.133 0 64 29.867 64 64v341.333c0 34.133-29.867 64-64 64h-597.333zM981.333 384c-12.8 0-21.333 8.533-21.333 21.333v85.333c0 12.8 8.533 21.333 21.333 21.333s21.333-8.533 21.333-21.333v-85.333c0-12.8-8.533-21.333-21.333-21.333z" />
<glyph unicode="&#xe95d;" glyph-name="activity" d="M640 42.667c-8.533 0-17.067 4.267-21.333 12.8l-234.667 708.267-106.667-324.267c-4.267-8.533-12.8-12.8-21.333-12.8h-170.667c-12.8 0-21.333 8.533-21.333 21.333s8.533 21.333 21.333 21.333h153.6l123.733 371.2c4.267 17.067 34.133 17.067 38.4 0l238.933-708.267 106.667 324.267c4.267 8.533 12.8 12.8 21.333 12.8h170.667c12.8 0 21.333-8.533 21.333-21.333s-8.533-21.333-21.333-21.333h-153.6l-123.733-371.2c-4.267-8.533-12.8-12.8-21.333-12.8z" />
<glyph unicode="&#xe95e;" glyph-name="paperclip" d="M341.333 0c-72.533 0-140.8 25.6-196.267 81.067-106.667 106.667-106.667 285.867 0 392.533l392.533 392.533c34.133 38.4 85.333 55.467 136.533 55.467s98.133-21.333 136.533-55.467c76.8-76.8 76.8-196.267 0-273.067l-392.533-392.533c-42.667-42.667-110.933-42.667-149.333 0-21.333 21.333-29.867 46.933-29.867 76.8s12.8 55.467 29.867 76.8l362.667 362.667c8.533 8.533 21.333 8.533 29.867 0s8.533-21.333 0-29.867l-362.667-362.667c-12.8-12.8-17.067-29.867-17.067-46.933s8.533-34.133 17.067-46.933c25.6-25.6 64-25.6 89.6 0l392.533 392.533c59.733 59.733 59.733 153.6 0 213.333-55.467 55.467-153.6 55.467-213.333 0l-392.533-392.533c-89.6-89.6-89.6-238.933 0-332.8 89.6-89.6 238.933-89.6 332.8 0l392.533 392.533c8.533 8.533 21.333 8.533 29.867 0s8.533-21.333 0-29.867l-392.533-392.533c-55.467-55.467-123.733-81.067-196.267-81.067z" />
<glyph unicode="&#xe95f;" glyph-name="sync" d="M1016.525 517.325c-9.984 9.984-26.214 9.984-36.198 0l-58.829-58.829c-2.611 105.472-44.954 204.288-119.859 279.142-77.363 77.363-180.224 119.962-289.638 119.962-152.269 0-291.123-83.712-362.342-218.419-6.605-12.493-1.843-28.006 10.65-34.611s28.006-1.843 34.611 10.65c62.31 117.914 183.808 191.181 317.082 191.181 193.997 0 352.512-154.982 358.246-347.597l-58.522 58.522c-9.984 9.984-26.214 9.984-36.198 0s-9.984-26.214 0-36.198l102.4-102.4c5.018-5.018 11.571-7.475 18.125-7.475s13.107 2.509 18.125 7.475l102.4 102.4c9.984 9.984 9.984 26.214 0 36.198zM863.693 291.43c-12.493 6.605-28.006 1.843-34.611-10.65-62.31-117.914-183.808-191.181-317.082-191.181-193.997 0-352.512 154.982-358.246 347.597l58.522-58.522c5.018-5.018 11.571-7.475 18.125-7.475s13.107 2.509 18.125 7.475c9.984 9.984 9.984 26.214 0 36.198l-102.4 102.4c-9.984 9.984-26.214 9.984-36.198 0l-102.4-102.4c-9.984-9.984-9.984-26.214 0-36.198s26.214-9.984 36.198 0l58.829 58.829c2.611-105.472 44.954-204.288 119.859-279.142 77.363-77.363 180.224-119.962 289.638-119.962 152.269 0 291.123 83.712 362.342 218.419 6.605 12.493 1.843 28.006-10.65 34.611z" />
<glyph unicode="&#xe94dd;" glyph-name="navigation" d="M554.667 42.667c0 0 0 0 0 0-12.8 0-17.067 8.533-21.333 17.067l-81.067 328.533-328.533 81.067c-8.533 4.267-17.067 8.533-17.067 17.067s4.267 17.067 12.8 21.333l810.667 384c8.533 4.267 17.067 4.267 25.6-4.267 4.267-4.267 8.533-17.067 4.267-25.6l-384-810.667c-4.267-4.267-12.8-8.533-21.333-8.533zM192 494.933l281.6-72.533c8.533 0 12.8-8.533 17.067-17.067l72.533-281.6 332.8 704-704-332.8z" />
</font>
</defs>
</svg>
